<svg width="720" height="960" viewBox="0 0 720 960" xmlns="http://www.w3.org/2000/svg">
  <defs>
    <linearGradient id="heroGradient" x1="0%" y1="0%" x2="100%" y2="100%">
      <stop offset="0%" stop-color="#1d4ed8" />
      <stop offset="100%" stop-color="#0ea5e9" />
    </linearGradient>
    <radialGradient id="heroGlow" cx="50%" cy="35%" r="65%">
      <stop offset="0%" stop-color="rgba(255,255,255,0.7)" />
      <stop offset="100%" stop-color="rgba(255,255,255,0)" />
    </radialGradient>
  </defs>
  <rect width="720" height="960" fill="url(#heroGradient)" />
  <circle cx="520" cy="220" r="220" fill="url(#heroGlow)" />
  <path d="M120 720 C240 620 360 820 480 720 C560 660 640 700 720 760 V960 H0 V800 C40 780 80 760 120 720 Z" fill="rgba(255,255,255,0.2)" />
  <path d="M0 520 C120 420 240 620 360 520 C420 470 520 460 600 520 C660 570 720 640 720 640 V960 H0 V520 Z" fill="rgba(255,255,255,0.1)" />
  <g fill="none" stroke="rgba(255,255,255,0.35)" stroke-width="2">
    <path d="M120 220 C220 120 340 140 420 260" />
    <path d="M160 300 C260 200 380 240 460 360" />
    <path d="M220 420 C320 320 440 360 520 480" />
  </g>
</svg>
